# xmcd
#
# Track frame offsets: 
#        150
#        16343
#        35302
#        56796
#        74522
#        101981
#        118327
#        133280
#        151305
#        165854
#
# Disc length: 2461 seconds
#
# Revision: 1
# Processed by: cddbd v1.5.2PL0 Copyright (c) Steve Scherf et al.
# Submitted via: ExactAudioCopy v1.0b3
#
DISCID=8b099b0a
DTITLE=Sean Chambers - Ten Til Midnight
DYEAR=2009
DGENRE=Blues
TTITLE0=Ten Til Midnight
TTITLE1=Blues And Rock 'N' Roll
TTITLE2=All The King's Horses
TTITLE3=You're Gonna Miss Me
TTITLE4=In The Winter Time
TTITLE5=Too Much Blues
TTITLE6=Make It Go
TTITLE7=Brown Sugar
TTITLE8=When I Get Lonely
TTITLE9=I Don't Know Why
EXTD=YEAR: 2009
EXTT0=
EXTT1=
EXTT2=
EXTT3=
EXTT4=
EXTT5=
EXTT6=
EXTT7=
EXTT8=
EXTT9=
PLAYORDER=
